<svg xmlns="http://www.w3.org/2000/svg" viewBox="0 0 395.77 395.76"><defs><style>.cls-1{fill:#56af31;}.cls-2{fill:#ffe24e;}.cls-3{fill:#fff;}</style></defs><g id="Camada_2" data-name="Camada 2"><g id="Capa_1" data-name="Capa 1"><path class="cls-1" d="M5.85,150.35C32.09,44.26,139.36-20.41,245.41,5.84s170.76,133.5,144.52,239.57S256.43,416.17,150.35,389.92-20.42,256.42,5.85,150.35"/><polygon class="cls-2" points="195.02 38.96 201.46 58.52 222.3 58.52 205.44 70.62 211.88 90.18 195.02 78.08 178.16 90.18 184.6 70.62 167.74 58.52 188.58 58.52 195.02 38.96"/><polygon class="cls-2" points="69.79 126.42 82.45 129.09 88.92 117.99 90.27 130.73 102.97 133.39 91.13 138.59 92.48 151.32 83.8 141.79 71.95 146.98 78.43 135.92 69.79 126.42"/><polygon class="cls-2" points="113.78 69.48 123.39 78.05 134.63 71.65 129.36 83.31 138.97 91.89 126.09 90.57 120.83 102.24 118.12 89.72 105.25 88.37 116.45 82 113.78 69.48"/><polygon class="cls-2" points="320.28 126.42 307.63 129.09 301.12 117.99 299.77 130.73 287.1 133.39 298.95 138.59 297.59 151.32 306.27 141.79 318.08 146.98 311.61 135.92 320.28 126.42"/><polygon class="cls-2" points="276.29 69.48 266.65 78.05 255.45 71.65 260.71 83.31 251.08 91.89 263.98 90.57 269.25 102.24 271.95 89.72 284.83 88.37 273.59 82 276.29 69.48"/><path class="cls-3" d="M195.33,326.45H135A138.22,138.22,0,0,0,193.24,340h3.55a138.22,138.22,0,0,0,58.26-13.59Z"/><path class="cls-3" d="M194.7,312.87H112.5A131.93,131.93,0,0,0,128.4,323H261.63a131.93,131.93,0,0,0,15.9-10.17H194.7Z"/><polygon class="cls-3" points="194.7 299.28 96.78 299.28 104.04 306.07 195.33 306.07 195.33 306.07 285.99 306.07 293.25 299.28 195.33 299.28 194.7 299.28"/><polygon class="cls-3" points="84.97 285.7 87.61 289.11 195.33 289.11 302.42 289.11 305.06 285.7 194.7 285.7 84.97 285.7"/><path class="cls-3" d="M195.33,243.64h0l-.31-.26h0l-.31.26h0c-17.41,14.42-28.07,23.56-51.29,23.56L73,267.09c1.78,3.35,3.74,6.66,5.77,9.82l66.65.11c32,0,49.48-20.16,49.58-20.27.09.11,17.61,20.27,49.57,20.27l66.65-.11c2-3.16,4-6.47,5.77-9.82l-70.39.11C223.4,267.2,212.74,258.06,195.33,243.64Z"/><path class="cls-3" d="M245.71,254.69q-3.27,0-6.74-.15c43.5-3.85,73-27.53,81.84-49.4-10.73-7.45-24.68-11.43-39.7-11.43-17.93,0-37.39,5.67-54.76,17.9,8.79-10.87,35.84-22.82,59.21-22.82a59.37,59.37,0,0,1,9,.66c3.59-3.7,6.72-8.32,10.31-12a58.83,58.83,0,0,0-12.59-1.28c-26.77,0-58.06,15.24-70.67,28.06,12-19,21.43-39.92,16.54-64.08a78.11,78.11,0,0,0-8.11-21.78c-3.57,3.36-7.59,6.75-11.17,10.07l-.07.07c13.73,24.79,8.75,53.7-2.35,73.87,14.24-29,9.44-57.7-4.28-78.27a73.77,73.77,0,0,0-16.88-18v0l-.31-.24h0l-.31.24v0a73.77,73.77,0,0,0-16.88,18c-13.72,20.57-18.52,49.29-4.28,78.27-11.1-20.17-16.08-49.08-2.35-73.87l-.07-.07c-3.58-3.32-7.6-6.71-11.17-10.07a78.11,78.11,0,0,0-8.11,21.78c-4.89,24.16,4.56,45.09,16.54,64.08-12.61-12.82-43.9-28.06-70.67-28.06a58.83,58.83,0,0,0-12.59,1.28c3.59,3.7,6.72,8.32,10.31,12a59.46,59.46,0,0,1,9-.66c23.38,0,50.42,12,59.21,22.82-17.37-12.23-36.83-17.9-54.76-17.9-15,0-29,4-39.7,11.43,8.89,21.87,38.34,45.55,81.84,49.4-2.31.1-4.56.15-6.73.15-31,0-48.49-9.86-64.33-20.92l-10.78,6.47C81.77,249.63,97.49,262,139.82,262c29.94,0,42.89-18.34,55.2-26.81,12.3,8.47,25.25,26.81,55.19,26.81,42.33,0,58-12.37,70.6-21.76L310,233.77C294.19,244.83,276.66,254.69,245.71,254.69Z"/></g></g></svg>