<svg xmlns="http://www.w3.org/2000/svg" viewBox="0 0 394.94 394.93"><defs><style>.cls-1{fill:#f6f6f6;}.cls-2{fill:#e52a18;}.cls-3{fill:#24356b;}</style></defs><g id="Camada_2" data-name="Camada 2"><g id="Capa_1" data-name="Capa 1"><path class="cls-1" d="M5.83,150C32,44.17,139.07-20.37,244.9,5.83S415.3,139,389.11,244.89,255.89,415.3,150,389.1-20.38,255.88,5.83,150"/><path class="cls-2" d="M380.07,122.38H227.13v30.23H389.78a197.55,197.55,0,0,0-9.71-30.23M341,61.9H227.13V92.16H364.47A198.05,198.05,0,0,0,341,61.9M54.88,334H340.09a195.74,195.74,0,0,0,23.78-30.23H31.14A196.89,196.89,0,0,0,54.88,334M244.9,5.82C239,4.35,233.05,3.19,227.13,2.28V31.67h77.62A197.15,197.15,0,0,0,244.9,5.82m149.5,177H227.13v30.25H394.29a197.17,197.17,0,0,0,.11-30.25M15.3,273.58H379.66a199.13,199.13,0,0,0,9.45-28.69c.13-.53.24-1,.36-1.57H5.41a198.2,198.2,0,0,0,9.89,30.26M150,389.09a198.1,198.1,0,0,0,35,5.42h25.13a197.3,197.3,0,0,0,92.93-30.25H91.77A197,197,0,0,0,150,389.09"/><path class="cls-3" d="M212.16,202l-4.27-3.11L203.62,202l1.63-5L201,193.89h5.26l1.64-5,1.62,5h5.28L210.53,197Zm-21-159.11,1.63,5-4.26-3.11-4.27,3.11,1.63-5-4.27-3.08h5.27l1.64-5,1.63,5h5.28Zm0,45.46,1.63,5-4.26-3.11-4.27,3.11,1.63-5-4.27-3.11h5.27l1.64-5,1.63,5h5.28Zm-.39,44.53,1.63,5-4.27-3.11-4.26,3.11,1.62-5-4.27-3.11h5.28l1.63-5,1.62,5h5.28Zm1.24,49-4.27-3.11-4.26,3.11,1.62-5-4.27-3.11h5.28l1.63-5,1.62,5h5.29l-4.28,3.11Zm-21-117,1.65,5-4.26-3.08-4.29,3.08,1.64-5-4.26-3.11h5.26l1.65-5,1.61,5h5.27ZM171,109l1.65,5-4.26-3.11L164.14,114l1.64-5-4.26-3.11h5.26l1.65-5,1.61,5h5.27Zm0,45,1.65,5-4.26-3.11L164.14,159l1.64-5-4.26-3.08h5.26l1.65-5,1.61,5h5.27Zm1.65,48-4.26-3.11L164.14,202l1.64-5-4.26-3.11h5.26l1.65-5,1.61,5h5.27L171,197ZM151.7,42.9l1.64,5-4.27-3.11-4.28,3.11,1.64-5-4.26-3.08h5.27l1.63-5,1.63,5H156Zm0,45.46,1.64,5-4.27-3.11-4.28,3.11,1.64-5-4.26-3.11h5.27l1.63-5,1.63,5H156Zm-.37,44.53,1.62,5-4.27-3.11-4.26,3.11,1.63-5-4.28-3.11H147l1.64-5,1.62,5h5.29Zm1.22,49-4.26-3.11L144,181.92l1.62-5-4.26-3.11h5.27l1.64-5,1.63,5h5.27l-4.26,3.11Zm-21-161,1.63,5-4.27-3.1-4.27,3.1,1.63-5L122,17.8h5.28l1.62-5,1.63,5h5.28Zm0,44,1.63,5-4.27-3.08-4.27,3.08,1.63-5L122,61.81h5.28l1.62-5,1.63,5h5.28Zm0,44.05,1.63,5-4.27-3.11L124.67,114l1.63-5L122,105.86h5.28l1.62-5,1.63,5h5.28Zm0,45,1.63,5-4.27-3.11L124.67,159l1.63-5L122,150.91h5.28l1.62-5,1.63,5h5.28Zm1.63,48-4.27-3.11L124.67,202l1.63-5L122,193.89h5.28l1.62-5,1.63,5h5.28L131.58,197Zm-21-160.69,1.64,5-4.28-3.11-4.27,3.11,1.64-5-4.27-3.08H108l1.63-5,1.64,5h5.26Zm0,45.45,1.64,5-4.28-3.08-4.27,3.08,1.64-5-4.27-3.11H108l1.63-5,1.64,5h5.26Zm-.4,44.54,1.64,5-4.26-3.11-4.29,3.11,1.64-5-4.26-3.11h5.27l1.64-5,1.61,5h5.28Zm1.25,49.05-4.27-3.11-4.26,3.11,1.62-5-4.27-3.08h5.27l1.64-5,1.62,5h5.29l-4.27,3.08Zm-21-115.44,1.64,5-4.26-3.08L85.2,69.93l1.64-5-4.26-3.11h5.26l1.65-5,1.61,5h5.27Zm0,44.05,1.64,5-4.26-3.11L85.2,114l1.64-5-4.26-3.11h5.26l1.65-5,1.61,5h5.27Zm0,45,1.64,5-4.26-3.11L85.2,159l1.64-5-4.26-3.08h5.26l1.65-5,1.61,5h5.27Zm1.64,48-4.26-3.11L85.2,202l1.64-5-4.26-3.11h5.26l1.65-5,1.61,5h5.27L92.11,197Zm-21-115.67,1.62,5-4.26-3.11-4.28,3.11,1.65-5-4.28-3.11H68.5l1.63-5,1.62,5H77Zm-.39,44.54,1.62,5-4.26-3.1-4.27,3.1,1.62-5-4.26-3.11H68.1l1.64-5,1.61,5h5.29Zm1.22,49-4.26-3.11-4.26,3.11,1.62-5-4.27-3.11h5.28l1.63-5,1.64,5h5.27L72,174.89ZM166.78,17.8l1.65-5,1.61,5h5.27L171,20.91l1.65,5-4.26-3.1-4.29,3.1,1.64-5-4.26-3.11Zm39.47,133.11,1.64-5,1.62,5h5.28L210.53,154l1.63,5-4.27-3.11L203.62,159l1.63-5L201,150.91Zm0-45,1.64-5,1.62,5h5.28L210.53,109l1.63,5-4.27-3.11L203.62,114l1.63-5L201,105.86Zm0-44,1.64-5,1.62,5h5.28l-4.26,3.11,1.63,5-4.27-3.08-4.27,3.08,1.63-5L201,61.81Zm0-44,1.64-5,1.62,5h5.28l-4.26,3.11,1.63,5-4.27-3.1-4.27,3.1,1.63-5L201,17.8ZM52.64,109l1.63,5L50,110.87,45.74,114l1.62-5-4.27-3.11h5.26l1.64-5,1.63,5h5.29Zm0,45,1.63,5L50,155.92,45.74,159l1.62-5-4.27-3.08h5.26l1.64-5,1.63,5h5.29Zm1.63,48L50,198.9,45.74,202l1.62-5-4.28-3.11h5.27l1.64-5,1.63,5h5.29L52.64,197ZM32.88,130.1l1.64,5L30.25,132,26,135.11l1.63-5L23.34,127h5.28l1.63-5,1.64,5h5.26Zm1.25,49L29.87,176l-4.29,3.11,1.64-5L23,171h5.27l1.64-5,1.61,5h5.29l-4.28,3.1ZM14.79,202l-4.27-3.11L6.25,202l1.63-5-4.26-3.11H8.9l1.62-5,1.65,5h5.25L13.16,197ZM227.12,2.28C225.19,2,210.79.41,208.86.17l-35.49,1.3A198,198,0,0,0,73.66,43.68l.73,2.24-1.85-1.35A198.66,198.66,0,0,0,54,61.81h2.92l-4.27,3.11,1.63,5L50,66.85l-1.7,1.23Q42.32,75,37,82.43h.59l-1.24.89c-.86,1.22-1.72,2.45-2.55,3.7l1.14,3.52-2.35-1.69A196.93,196.93,0,0,0,5.83,150l-.21.88H8.9l1.62-5,1.65,5h5.25L13.16,154l1.63,5-4.27-3.11L6.25,159l1.63-5-2.55-1.84a197.44,197.44,0,0,0-4.69,61.2H227.12Z"/></g></g></svg>