<svg xmlns="http://www.w3.org/2000/svg" viewBox="0 0 395.77 395.76"><defs><style>.cls-1{fill:#56af31;}.cls-2{fill:#ffd300;}.cls-3{fill:#312783;}.cls-4{fill:#fff;}.cls-5{fill:#009545;}.cls-6{fill:#068037;}</style></defs><g id="Camada_2" data-name="Camada 2"><g id="Capa_1" data-name="Capa 1"><path class="cls-1" d="M5.85,150.35C32.09,44.26,139.36-20.41,245.41,5.84S416.17,139.33,389.93,245.4,256.43,416.17,150.35,389.91-20.42,256.42,5.85,150.35"/><polygon class="cls-2" points="13.72 198.67 196.41 315.34 379.11 198.67 196.41 82.01 13.72 198.67"/><path class="cls-3" d="M196.42,120.42a78.26,78.26,0,1,1-78.28,78.25,78.25,78.25,0,0,1,78.28-78.25"/><path class="cls-4" d="M274.26,206.55A189.28,189.28,0,0,0,124.53,167.7a77,77,0,0,0-4.07,12.09A178.6,178.6,0,0,1,272,219.07a76,76,0,0,0,2.3-12.52"/><path class="cls-5" d="M128.34,172.63l.87,1.85,1.6.45,1.41-.86.29-2.06-.84-1.86-1.61-.42-1.43.86Zm-1.56.27.07-2,.53-1.14.89-.83,1.61-.53,2.81.65,1.43,2.74-.6,3-2.5,1.42-2.83-.65Z"/><path class="cls-5" d="M138.71,170.74l1.12-.1,1.38-.22.41-.36.11-.58-.25-.62-.62-.23-1.14.08-1.18.1Zm-1.16,4.54-.66-7.62,3.21-.29,1.83,0,.94.65.44,1.18-.38,1.45-1.45.84.9.57,1,1.16,1.08,1.41-1.83.16-1.28-1.56-.89-1-.49-.29h-.8l-.32,0,.29,3.18Z"/><path class="cls-5" d="M148.4,168.1l.13,5.07,1.16,0,.94-.09.6-.35.38-.76.14-1.39-.2-1.35-.47-.74-.72-.34-1.27,0Zm-1.58-1.25,2.83-.06,1.45.08,1.16.69.78,1.21.29,1.81-.2,1.63-.76,1.37-1.07.64-1.38.21-2.91.08Z"/><polygon class="cls-5" points="156.43 174.28 156.52 166.63 162.21 166.72 162.19 168.02 158.06 167.94 158.04 169.65 161.88 169.71 161.85 171.01 158.01 170.94 157.97 173.03 162.25 173.08 162.23 174.37 156.43 174.28"/><polygon class="cls-5" points="165.31 174.48 165.85 166.85 168.15 167.01 169.17 172.32 170.89 167.21 173.21 167.37 172.67 175 171.25 174.91 171.67 168.9 169.73 174.8 168.26 174.7 167.16 168.57 166.74 174.57 165.31 174.48"/><polygon class="cls-5" points="180.59 175.91 181.73 168.35 187.36 169.21 187.16 170.49 183.07 169.87 182.81 171.54 186.62 172.11 186.42 173.39 182.63 172.81 182.31 174.88 186.55 175.51 186.35 176.79 180.59 175.91"/><path class="cls-5" d="M196.81,172.39l-.49,2.12.83.19,1.23.16.56-.26.29-.54-.09-.74-.54-.46-1-.3Zm-2.94,5.84,1.74-7.45,2.41.56,1.76.51.92,1,.09,1.55-.52,1.11-.8.59-.87.17L197,176l-1-.22-.65,2.82Z"/><path class="cls-5" d="M205.27,176.52l1.1.31,1.36.28.51-.18.31-.52,0-.65-.47-.45L207,175l-1.12-.32Zm-2.7,3.8,2.1-7.36,3.12.9,1.66.69.66.95v1.25l-.89,1.24-1.65.24.63.85.49,1.45.51,1.7-1.79-.51-.62-1.92-.47-1.31-.36-.44-.73-.28-.29-.1-.87,3.09Z"/><path class="cls-5" d="M214,179.79l-.09,2.05,1.23,1.15,1.63-.16,1.23-1.67.11-2L216.9,178l-1.65.11Zm-1.52-.49,1-1.73,1-.77,1.16-.32,1.67.26,2.21,1.87v3.09l-1.9,2.41-2.87.1-2.24-1.85Z"/><polygon class="cls-5" points="225.42 185.13 225.91 183.93 228.99 185.19 227.85 188.01 226.22 188.25 224.37 187.87 222.61 186.61 221.94 184.77 222.3 182.7 223.57 180.93 225.46 180.18 227.29 180.53 229.12 181.93 229.44 183.84 227.92 183.52 227.7 182.47 226.8 181.74 225.06 181.72 223.77 183.25 223.57 185.38 224.78 186.61 225.76 186.8 226.7 186.7 227.07 185.8 225.42 185.13"/><path class="cls-5" d="M233.65,187l1,.5L236,188l.54-.12.38-.44.09-.65-.4-.53-1-.5-1.12-.52Zm-3.28,3.34,3.28-6.91,2.93,1.39,1.52,1,.5,1-.24,1.24-1.05,1.07-1.67,0,.47.92.27,1.51.2,1.75-1.68-.79-.29-2-.24-1.37-.29-.49-.67-.4-.27-.14-1.38,2.9Z"/><polygon class="cls-5" points="238.81 194.42 242.47 187.7 247.44 190.41 246.84 191.53 243.18 189.57 242.38 191.07 245.77 192.89 245.14 194.03 241.78 192.2 240.79 194.03 244.54 196.06 243.94 197.2 238.81 194.42"/><polygon class="cls-5" points="247.51 196.38 248.87 197.02 248.76 198.27 249.52 199.15 250.66 199.47 251.37 199.03 251.48 198.54 251.17 197.98 250.28 197.06 249.18 195.5 249.38 193.83 250.23 193.05 251.44 192.89 252.86 193.44 254.38 195.1 254.18 196.96 252.82 196.21 252.91 195.26 252.2 194.52 251.15 194.21 250.7 194.5 250.66 195.01 251.62 196.18 252.73 197.51 253.04 198.63 252.69 199.82 251.75 200.7 250.41 200.88 248.85 200.26 247.29 198.53 247.51 196.38"/><polygon class="cls-5" points="255.16 201.1 256.5 201.83 256.32 203.04 257.06 203.97 258.18 204.34 258.89 203.94 259.02 203.48 258.75 202.89 257.91 201.92 256.88 200.31 257.17 198.65 258.06 197.91 259.29 197.81 260.68 198.44 262.1 200.18 261.81 202.01 260.5 201.21 260.61 200.26 259.96 199.5 258.93 199.14 258.44 199.38 258.38 199.9 259.27 201.12 260.34 202.5 260.61 203.63 260.18 204.81 259.18 205.62 257.86 205.76 256.32 205.04 254.85 203.25 255.16 201.1"/><path class="cls-5" d="M264.72,206.11l-.7,2,.8,1.44,1.61.39,1.7-1.24.71-1.91-.84-1.44-1.62-.41Zm-1.3-.92,1.47-1.34,1.19-.41,1.2,0,1.51.76,1.52,2.47-1,2.94-2.54,1.7-2.79-.78-1.52-2.48Z"/><polygon class="cls-4" points="221.25 168.97 221.99 171.19 224.3 171.19 222.43 172.56 223.15 174.75 221.25 173.4 219.37 174.75 220.11 172.56 218.24 171.19 220.56 171.19 221.25 168.97"/><polygon class="cls-4" points="196.72 232.19 197.44 234.39 199.76 234.39 197.89 235.75 198.6 237.98 196.72 236.6 194.85 237.98 195.57 235.75 193.69 234.39 196.01 234.39 196.72 232.19"/><polygon class="cls-4" points="252.26 224.41 253 226.67 255.36 226.67 253.45 228.06 254.18 230.3 252.26 228.92 250.37 230.3 251.08 228.06 249.18 226.67 251.53 226.67 252.26 224.41"/><polygon class="cls-4" points="263.22 226.28 263.69 227.71 265.2 227.71 263.98 228.6 264.44 230.04 263.22 229.17 262.01 230.04 262.46 228.6 261.25 227.71 262.77 227.71 263.22 226.28"/><polygon class="cls-4" points="255.43 231.87 256.08 233.83 258.13 233.83 256.46 235.03 257.11 236.98 255.43 235.78 253.78 236.98 254.43 235.03 252.75 233.83 254.81 233.83 255.43 231.87"/><polygon class="cls-4" points="250.54 238.33 251.17 240.25 253.18 240.25 251.57 241.44 252.2 243.37 250.54 242.17 248.94 243.37 249.57 241.44 247.91 240.25 249.94 240.25 250.54 238.33"/><polygon class="cls-4" points="244.27 243.02 244.76 244.49 246.31 244.49 245.05 245.42 245.54 246.89 244.27 245.96 243.03 246.89 243.5 245.42 242.24 244.49 243.81 244.49 244.27 243.02"/><polygon class="cls-4" points="236.04 241.44 236.53 242.9 238.05 242.9 236.82 243.79 237.29 245.26 236.04 244.36 234.82 245.26 235.28 243.79 234.06 242.9 235.6 242.9 236.04 241.44"/><polygon class="cls-4" points="227.19 244.12 227.7 245.71 229.35 245.71 228.01 246.68 228.53 248.25 227.19 247.27 225.84 248.25 226.36 246.68 225.02 245.71 226.67 245.71 227.19 244.12"/><polygon class="cls-4" points="236.2 257.04 236.67 258.54 238.23 258.54 236.98 259.44 237.47 260.93 236.2 260.01 234.92 260.93 235.42 259.44 234.17 258.54 235.71 258.54 236.2 257.04"/><polygon class="cls-4" points="220.22 250.24 220.87 252.25 222.99 252.25 221.27 253.5 221.94 255.5 220.22 254.25 218.5 255.5 219.18 253.5 217.46 252.25 219.57 252.25 220.22 250.24"/><polygon class="cls-4" points="214.09 242.07 214.6 243.61 216.23 243.61 214.91 244.54 215.42 246.1 214.09 245.15 212.79 246.1 213.28 244.54 211.99 243.61 213.6 243.61 214.09 242.07"/><polygon class="cls-4" points="236.44 248.47 237.09 250.42 239.14 250.42 237.47 251.63 238.1 253.58 236.44 252.38 234.79 253.58 235.42 251.63 233.76 250.42 235.82 250.42 236.44 248.47"/><polygon class="cls-4" points="196.64 261.05 196.86 261.76 197.6 261.76 196.99 262.2 197.22 262.89 196.64 262.46 196.03 262.89 196.26 262.2 195.68 261.76 196.41 261.76 196.64 261.05"/><polygon class="cls-4" points="217.39 192.78 217.93 194.39 219.6 194.39 218.24 195.37 218.77 196.97 217.39 196 216.05 196.97 216.56 195.37 215.2 194.39 216.88 194.39 217.39 192.78"/><polygon class="cls-4" points="196.68 210.03 197.24 211.72 199.03 211.72 197.57 212.76 198.13 214.46 196.68 213.4 195.26 214.46 195.81 212.76 194.36 211.72 196.15 211.72 196.68 210.03"/><polygon class="cls-4" points="205.87 217.15 206.46 218.96 208.37 218.96 206.84 220.07 207.44 221.88 205.87 220.76 204.33 221.88 204.94 220.07 203.38 218.96 205.29 218.96 205.87 217.15"/><polygon class="cls-4" points="188.74 217.39 189.19 218.82 190.7 218.82 189.48 219.69 189.94 221.14 188.74 220.25 187.51 221.14 187.98 219.69 186.75 218.82 188.25 218.82 188.74 217.39"/><polygon class="cls-4" points="192.53 223.83 192.84 224.8 193.85 224.8 193.02 225.38 193.34 226.33 192.53 225.74 191.73 226.33 192.04 225.38 191.24 224.8 192.22 224.8 192.53 223.83"/><polygon class="cls-4" points="131.75 182.61 132.47 184.83 134.78 184.83 132.91 186.18 133.63 188.4 131.75 187.02 129.88 188.4 130.59 186.18 128.72 184.83 131.04 184.83 131.75 182.61"/><polygon class="cls-4" points="165.98 200.37 166.56 202.19 168.48 202.19 166.94 203.32 167.54 205.14 165.98 204.01 164.42 205.14 165.04 203.32 163.48 202.19 165.4 202.19 165.98 200.37"/><polygon class="cls-4" points="138.85 215.84 139.56 218.06 141.88 218.06 140.01 219.45 140.72 221.65 138.85 220.27 136.95 221.65 137.67 219.45 135.79 218.06 138.11 218.06 138.85 215.84"/><polygon class="cls-4" points="146.53 212.54 146.88 213.66 148.04 213.66 147.1 214.34 147.46 215.44 146.53 214.76 145.59 215.44 145.94 214.34 145.01 213.66 146.17 213.66 146.53 212.54"/><polygon class="cls-4" points="155.45 224.18 156.05 226.06 158.04 226.06 156.43 227.22 157.03 229.11 155.45 227.94 153.82 229.11 154.45 227.22 152.84 226.06 154.82 226.06 155.45 224.18"/><polygon class="cls-4" points="164.75 238.72 165.47 240.93 167.79 240.93 165.91 242.29 166.63 244.49 164.75 243.14 162.88 244.49 163.59 242.29 161.72 240.93 164.04 240.93 164.75 238.72"/><polygon class="cls-4" points="152.86 232.07 153.48 233.95 155.45 233.95 153.87 235.12 154.47 236.99 152.86 235.83 151.28 236.99 151.88 235.12 150.27 233.95 152.26 233.95 152.86 232.07"/><polygon class="cls-4" points="129.03 223.88 129.5 225.34 131.04 225.34 129.79 226.25 130.28 227.71 129.03 226.82 127.78 227.71 128.25 226.25 127 225.34 128.54 225.34 129.03 223.88"/><path class="cls-6" d="M204.67,173l-2.1,7.36,1.5.44.87-3.08.29.09.73.28.36.44.47,1.31.62,1.91,1.79.52-.51-1.7-.49-1.45-.63-.85,1.65-.24.89-1.24V175.5l-.66-.95-1.66-.69Zm3.06,4.15-1.36-.28-1.1-.31.56-1.88L207,175l1.09.35.47.45,0,.65-.31.52Z"/><path class="cls-6" d="M215.65,176.48l-1.16.32-1,.77-1,1.74v3.05l2.23,1.85,2.88-.1,1.9-2.4v-3.09l-2.21-1.88Zm-.47,6.51L214,181.84l.09-2.05,1.21-1.69,1.65-.11,1.25,1.12-.11,2-1.23,1.67Z"/><polygon class="cls-6" points="225.47 180.18 223.57 180.93 222.3 182.7 221.94 184.77 222.61 186.61 224.37 187.87 226.22 188.25 227.85 188.01 228.99 185.19 225.91 183.93 225.42 185.13 227.07 185.8 226.7 186.7 225.76 186.8 224.78 186.61 223.57 185.37 223.77 183.25 225.06 181.72 226.8 181.74 227.7 182.47 227.92 183.52 229.44 183.85 229.13 181.93 227.29 180.53 225.47 180.18"/><path class="cls-6" d="M233.65,183.4l-3.28,6.91,1.39.67,1.38-2.9.27.14.67.4.29.49.24,1.37.29,2,1.68.79-.2-1.75-.27-1.51-.47-.92,1.67,0,1.05-1.07.25-1.24-.51-1-1.52-1ZM236,188l-1.27-.52-1-.5.83-1.74,1.12.52,1,.5.4.53-.09.65-.38.44Z"/><polygon class="cls-6" points="242.47 187.7 238.81 194.42 243.94 197.2 244.54 196.06 240.79 194.03 241.78 192.2 245.14 194.03 245.77 192.89 242.38 191.07 243.18 189.57 246.84 191.53 247.44 190.41 242.47 187.7"/><polygon class="cls-6" points="251.44 192.89 250.23 193.05 249.38 193.83 249.18 195.5 250.28 197.06 251.17 197.98 251.48 198.54 251.37 199.03 250.66 199.46 249.52 199.15 248.76 198.27 248.87 197.02 247.51 196.38 247.29 198.53 248.85 200.26 250.41 200.88 251.75 200.7 252.69 199.82 253.04 198.63 252.73 197.51 251.62 196.18 250.66 195.01 250.7 194.5 251.15 194.21 252.2 194.52 252.91 195.26 252.82 196.21 254.18 196.96 254.38 195.1 252.86 193.44 251.44 192.89"/><polygon class="cls-6" points="259.29 197.81 258.06 197.91 257.17 198.65 256.88 200.31 257.91 201.92 258.75 202.89 259.02 203.48 258.89 203.94 258.18 204.34 257.06 203.97 256.32 203.04 256.5 201.83 255.16 201.1 254.85 203.25 256.32 205.04 257.86 205.75 259.18 205.62 260.18 204.81 260.61 203.63 260.34 202.5 259.27 201.12 258.38 199.9 258.44 199.37 258.93 199.14 259.96 199.5 260.61 200.26 260.5 201.21 261.81 202.01 262.1 200.18 260.68 198.44 259.29 197.81"/><path class="cls-6" d="M266.07,203.44l-1.18.41-1.47,1.34-.91,2.9,1.51,2.48,2.79.78,2.54-1.7,1-2.94-1.52-2.47-1.51-.76Zm.36,6.46-1.61-.39-.8-1.44.69-2,1.67-1.21,1.61.41.85,1.44-.71,1.91Z"/></g></g></svg>