<svg xmlns="http://www.w3.org/2000/svg" viewBox="0 0 394.94 394.93"><defs><style>.cls-1{fill:#e52a18;}.cls-2{fill:#fff;}</style></defs><g id="Camada_2" data-name="Camada 2"><g id="Capa_1" data-name="Capa 1"><path class="cls-1" d="M5.83,150C32,44.17,139.06-20.36,244.9,5.83S415.3,139,389.11,244.89,255.89,415.3,150,389.1-20.38,255.88,5.83,150"/><path class="cls-2" d="M181.39,48.76A145.63,145.63,0,1,1,35.8,194.39,145.63,145.63,0,0,1,181.39,48.76"/><path class="cls-1" d="M222.58,285.49a91.11,91.11,0,1,1,61.9-157.82,113.9,113.9,0,1,0,0,133.39,90.59,90.59,0,0,1-61.9,24.43"/><polygon class="cls-1" points="207.57 128.86 236.73 169.53 284.48 154.36 254.76 194.69 283.97 235.36 236.43 219.59 206.76 259.91 207.06 209.86 159.56 194.09 207.27 178.91 207.57 128.86"/></g></g></svg>