<svg xmlns="http://www.w3.org/2000/svg" viewBox="0 0 394.94 394.93"><defs><style>.cls-1{fill:#e52a18;}.cls-2{fill:#352f25;}</style></defs><g id="Camada_2" data-name="Camada 2"><g id="Capa_1" data-name="Capa 1"><path class="cls-1" d="M5.83,150C32,44.17,139.07-20.37,244.9,5.83S415.3,139,389.12,244.89,255.89,415.3,150,389.1-20.38,255.88,5.83,150"/><path class="cls-2" d="M196.3,346.92c-4.74-5.66-11.93-11.93-9.9-20.22l4.7-7.32.42-6.42c-3.65,3.87-6.92,8.61-12.21,10.47a10.39,10.39,0,0,1-10.56-2l-.31-3.86c3.77-2.56,9.24-2,12.35-5.66,3.32-3.35,4-8.3,3.43-12.76-5.57,2.83-9.32,9.65-16.13,9.91-4.86,1.16-10.33-2-10.93-7.14,5-3,11.14-2.57,16.37-4.91,3.25-1.64,4.46-5.35,3.69-8.84-4.78,1.82-9.1,6.06-14.6,5-4.35.49-9-3.06-8.61-7.57,3.29-.66,6.55-1.14,9.76-1.7,6.1-1.53,10.9-6.15,14.5-11.05,5.09-7.59,8.67-16.38,9.36-25.53l-2.2-6.48c-4.36-.65-6.43,3.81-8.65,6.53-5.45,8-10.36,16.52-13.44,25.81-4.47,0-8.23-2.4-11.9-4.8l-6.8.76c-6.16,2.72-12.58,4.67-18.79,7.42l6.85,2.77,7.83,1,4.59,4.68.63,6.76-3.13-3.23c-1.23-1.29-2.93-1.06-4.63-.84s-3.57.48-4.8-1.06c-2.89-3.88-7.48-5.72-11.8-7.41l-4.08-.31c-3.88,2-7.84,4.25-10.82,7.57l-4.63,5.34L95.07,293l-3.72,7c-2.71-4.12-.69-9.07.49-13.4,1-3.88,5.52-3.91,8.79-4.18,4.52.36,8.17-2.79,11.55-5.25a169.47,169.47,0,0,0-22.61,1.5l-7.18-2.62-7.88.52L78.67,272c2.93-1,6.11-1.44,9.16-2.2,3.61-.95,6.39,2.09,9.7,2.75a75.31,75.31,0,0,0,15.22.86c-4.2-3.38-8.8-6.56-14.36-6.82-3-.08-4.17-3.33-6.76-4.23l-7.41-.62,3.67-4.58a21.9,21.9,0,0,1,5,.23,25.87,25.87,0,0,0,4.66.26l7.39,2.55c3.19,5.46,8.69,8.85,14.08,11.69l3.71-.49c7.26-2.89,14.54-5.57,21.52-9L139,255.71c8.8-4.65,18-9.66,23.62-18.14,2.95-4.49,6.27-9.56,5.62-15.12-4.09,6-7.31,13.9-15.11,15.87l-3.86-4.3c1.57-2.57,4.15-4.48,5.17-7.38,1.58-2.94,1.58-6.38,2-9.64l-5.09.55c-2.32,3.86-3.31,8.46-5.52,12.42-3.21,5.78-6.15,12.49-12.28,15.61-3.45,1.09-10-.94-8.44-5.68,3.47-3.93,8.91-6.05,11.25-11.13,2.57-5,6.18-11.34,2.78-16.72-5.24,4.5-7.95,11.09-12.65,16.14-6.16,6.86-11.53,15-20.12,19.06-4.11,1.91-8.73,3.35-13.22,2.51-4.32-.54-8.69-2.79-10.75-6.69l2.45-4.75c3.15-1.25,6.38.11,9.6.2,5.45.46,10.47-2.23,14.55-5.44,8-7.37,13.46-17.07,17.25-27.09l-1.49-1.81c-5.88,6.46-11.81,13.16-19.36,17.67-5,3-11.07,5.34-17,3.69-4.51-.87-9.5-4.13-9.5-9.13.36-3.13,4.15-3.29,6.52-2.95,6,.7,12.56,1.29,18-1.75,7-3.93,11.78-10.47,16.58-16.68,2.18-3.49,5.75-6.83,5.22-11.33-7.75,4-13.31,11.1-21,15.19A20.91,20.91,0,0,1,84.09,201a8,8,0,0,1-4.92-8.21l3.35-4.77c6.51.31,13,3.33,19.54,1.39,7.09-2.6,12.47-8.12,17.27-13.73l2.84-6.59c-7.64,1.63-14.23,6.16-21.2,9.42-4,1.8-8.51,1.92-12.82,1.42-4.58-.6-8.87-4.19-9.53-8.88L82,166.18c3.1-.65,5.75.55,8.4,1.75s5,2.29,7.93,1.84c10.14-.21,21.32-5.44,25.13-15.4L122,152.83c-5.24.86-9.89,3.75-15,5.12-9.88,1.91-21.09-.17-28.18-7.75l1-8c4.61-.83,8.48,2.42,12.48,4.25C99.5,150.2,109,151,115.74,146c3.93-2.72,8.26-6.51,8.08-11.73-5.91.86-11,4.21-16.93,5-7.09.71-15,.51-21.09-3.69-4.81-3-9.41-8.3-8.06-14.39L84,118.8c3,2.18,5.07,5.58,8.36,7.48,5.11,3.71,11.83,4.18,17.93,3.75,4-.49,9.08.3,11.6-3.69l-4.32-5.67a77.45,77.45,0,0,1-33.31-13.59c-3.66-2.61-6.9-6.12-8-10.51-.92-4.16,1.66-9.6,6.26-9.83,3,0,4.78,2.83,6.12,5.12,7.3,12.22,21.14,18.76,34.6,21.58l2.77-6.36c7.1,3.28,14.45,5.84,21.78,8.5,2.89,1.22,6.1,2.46,7.8,5.31,4.16,5.16,1,12.42,2.89,18.35l6.14,4.26a8.56,8.56,0,0,0,9.38-7.43c.79-10.77-4.56-22.39-14.54-27.24-5.94-3.59-13-4-19.71-5.07-4.55-.34-5.78-6.5-10.33-6.76-3.72-.28-7.59-1.33-10.32-4l-2.71-4.67,3.5-.93c2.87,1.9,4.46,5.37,7.66,7a23.94,23.94,0,0,0,12.28.65V92.29l-4.92-1.13-5.61,3.27,2.47-7.19c3.2-1.85,7.2-1.47,10.66-2.22,2.9,0,5-2.35,7.74-2.75,5.51-.49,10.8,1.41,15.78,3.72,6,3.32,13.09.65,19.52.15a19.69,19.69,0,0,1-9,7.26l-.36,1.42a60.45,60.45,0,0,0,10.35,5.77L180.83,104c2.36,3.49,6.34,5.44,10.35,6.32l-5.27,2.93,3.85,3.65,5,.56-1.93,4.86,3.62.17,3.35-.17-1.91-4.86,5-.56,3.91-3.65-5.32-2.93c4.06-.88,8-2.83,10.36-6.32l-5.6-3.45a62.22,62.22,0,0,0,10.33-5.77l-.39-1.42a19.79,19.79,0,0,1-8.92-7.26c6.46.5,13.5,3.17,19.52-.15,5-2.31,10.27-4.21,15.77-3.72,2.76.4,4.85,2.8,7.74,2.75,3.47.75,7.45.37,10.68,2.22l2.46,7.19-5.63-3.27-4.88,1.13V95a23.88,23.88,0,0,0,12.26-.65c3.17-1.6,4.8-5.07,7.66-7l3.5.93L273.55,93c-2.74,2.66-6.6,3.71-10.3,4-4.55.26-5.75,6.42-10.33,6.76-6.74,1.08-13.76,1.48-19.73,5.07-9.94,4.85-15.29,16.47-14.52,27.24A8.53,8.53,0,0,0,228,143.5l6.15-4.26c1.92-5.93-1.29-13.19,2.89-18.35,1.7-2.85,4.92-4.09,7.79-5.31,7.34-2.66,14.7-5.22,21.79-8.5l2.76,6.36c13.47-2.82,27.31-9.36,34.6-21.58,1.36-2.29,3.11-5.12,6.13-5.12,4.56.23,7.19,5.67,6.3,9.83-1.17,4.39-4.46,7.9-8.09,10.51A77.43,77.43,0,0,1,275,120.67l-4.3,5.67c2.5,4,7.65,3.2,11.62,3.69,6.09.43,12.8,0,17.93-3.75,3.27-1.9,5.34-5.3,8.34-7.48l6.26,2.3c1.35,6.09-3.24,11.44-8.07,14.39-6.08,4.2-14,4.4-21.08,3.69-5.9-.74-11-4.09-16.92-5-.2,5.22,4.15,9,8.1,11.73,6.76,5.06,16.23,4.24,23.37.48,4-1.83,7.87-5.08,12.49-4.25l1,8c-7.07,7.58-18.31,9.66-28.19,7.75-5.12-1.37-9.76-4.26-15-5.12l-1.45,1.54c3.81,10,15,15.19,25.17,15.4,2.88.45,5.4-.69,7.92-1.84s5.28-2.4,8.36-1.75l3.39,4.91c-.64,4.69-5,8.28-9.56,8.88-4.29.5-8.84.38-12.79-1.42-7-3.26-13.59-7.79-21.23-9.42l2.85,6.59c4.79,5.61,10.17,11.13,17.26,13.73,6.56,1.94,13.05-1.08,19.56-1.39l3.36,4.77a8.05,8.05,0,0,1-5,8.21c-6.49,3-14.4,1.88-20.22-2.15-7.7-4.09-13.28-11.22-21-15.19-.57,4.5,3,7.84,5.21,11.33,4.81,6.21,9.58,12.75,16.57,16.68,5.47,3,12.05,2.45,18,1.75,2.34-.34,6.2-.18,6.52,2.95,0,5-5,8.26-9.5,9.13-5.89,1.65-11.93-.7-17-3.69-7.57-4.51-13.45-11.21-19.35-17.67L266.35,206c3.77,10,9.23,19.72,17.24,27.09,4.1,3.21,9.11,5.9,14.56,5.44,3.24-.09,6.44-1.45,9.59-.2l2.46,4.75c-2.06,3.9-6.43,6.15-10.76,6.69-4.52.84-9.14-.6-13.23-2.51-8.57-4.09-13.95-12.2-20.12-19.06-4.69-5.05-7.39-11.64-12.65-16.14-3.38,5.38.22,11.76,2.8,16.72,2.33,5.08,7.78,7.2,11.27,11.13,1.53,4.74-5,6.77-8.46,5.68-6.13-3.12-9.11-9.83-12.27-15.61-2.22-4-3.2-8.56-5.55-12.42l-5.08-.55c.44,3.26.44,6.7,2,9.64,1.05,2.9,3.59,4.81,5.17,7.38l-3.86,4.3c-7.79-2-11-9.88-15.09-15.87-.68,5.56,2.67,10.63,5.62,15.12,5.61,8.48,14.81,13.49,23.6,18.14l-5.29,6.61c7,3.47,14.27,6.15,21.52,9l3.71.49c5.39-2.84,10.91-6.23,14.06-11.69l7.43-2.55a25.7,25.7,0,0,0,4.64-.26,22.78,22.78,0,0,1,5.08-.23l3.64,4.58-7.43.62c-2.55.9-3.75,4.15-6.76,4.23-5.55.26-10.13,3.44-14.33,6.82a75.31,75.31,0,0,0,15.22-.86c3.32-.66,6.09-3.7,9.68-2.75,3.08.76,6.25,1.15,9.17,2.2l4.15,4.62-7.86-.52c-2.38.89-4.35,3.2-7.19,2.62a169.39,169.39,0,0,0-22.62-1.5c3.37,2.46,7.05,5.61,11.55,5.25,3.27.27,7.75.3,8.79,4.18,1.18,4.33,3.2,9.28.5,13.4l-3.73-7-6.81-1.13-4.61-5.34c-3-3.32-6.95-5.53-10.82-7.57l-4.08.31c-4.33,1.69-8.89,3.53-11.79,7.41-1.23,1.54-3,1.3-4.8,1.06s-3.39-.45-4.6.84l-3.18,3.23.67-6.76,4.57-4.68,7.84-1,6.81-2.77c-6.14-2.75-12.59-4.7-18.77-7.42l-6.8-.76c-3.66,2.4-7.42,4.83-11.9,4.8-3-9.29-8-17.8-13.46-25.81-2.15-2.72-4.25-7.18-8.61-6.53L205,247.31c.68,9.15,4.31,17.94,9.38,25.53,3.6,4.9,8.36,9.52,14.48,11.05,3.23.56,6.49,1,9.77,1.7.32,4.51-4.26,8.06-8.6,7.57-5.53,1-9.84-3.2-14.63-5-.76,3.49.43,7.2,3.72,8.84,5.21,2.34,11.34,1.95,16.35,4.91-.59,5.12-6.07,8.3-10.88,7.14-6.86-.26-10.62-7.08-16.17-9.91-.54,4.46.12,9.41,3.46,12.76,3.07,3.63,8.54,3.1,12.31,5.66l-.31,3.86a10.38,10.38,0,0,1-10.57,2c-5.26-1.86-8.54-6.6-12.18-10.47l.43,6.42,4.67,7.32c2,8.29-5.13,14.56-9.91,20.22"/></g></g></svg>