<svg xmlns="http://www.w3.org/2000/svg" viewBox="0 0 395.76 395.76"><defs><style>.cls-1{fill:#e52a18;}.cls-2{fill:#ffd300;}</style></defs><g id="Camada_2" data-name="Camada 2"><g id="Capa_1" data-name="Capa 1"><path class="cls-1" d="M5.85,150.35C32.09,44.26,139.36-20.41,245.42,5.84S416.17,139.33,389.92,245.4,256.43,416.17,150.35,389.92-20.42,256.42,5.85,150.35"/><path class="cls-2" d="M147.61,138.45c2.09.12,4.17.28,6.25.5A109.74,109.74,0,0,1,183,146l2.17.25,4.33-2.4a128.16,128.16,0,0,0-15.9-5.15,111,111,0,0,0-14.85-2.65c-2.69-.3-5.4-.5-8.1-.61Z"/><polygon class="cls-2" points="193.85 165.09 197.88 168.13 197.97 168.19 201.95 165.09 198.05 162.25 197.88 162.37 193.85 165.09"/><path class="cls-2" d="M193.89,108l4,0,2.92,0,2.86,0,1-.31a13.55,13.55,0,0,1-.84-2c-.93-2.85-1-6-1.22-8.88,0-6.54.89-13,1.48-19.49a92.81,92.81,0,0,0,.25-10.82c-.22-5.51-2-11.31-6.31-15l.72,6.21a47.43,47.43,0,0,1-.89,10c-.9,4.84-2.35,9.6-3.71,14.33-1.83,6.44-3.71,13-3.65,19.74l.54,5.84Z"/><path class="cls-2" d="M160,83.94l.42,10.25c.32,6.56,1.23,13.36,4.51,19.18l.89.76a85.31,85.31,0,0,1,25.28-5.91L189.39,104c-1.88-5.27-2.44-10.82-2.79-16.31-.57-7.46-.49-15-2.45-22.35-1.22-4.81-3.88-9.42-8.13-12.11l1.22,4.15a44.8,44.8,0,0,1,1,14.14C177.88,78.85,176.4,86,176,93.31a37.59,37.59,0,0,0,2,16.54l-4-6.65c-4.45-10.66-4.82-22.48-9.21-33.12-2-5-5.49-9.63-10.54-11.76a40.74,40.74,0,0,1,5.19,16.77Z"/><path class="cls-2" d="M124.84,92.4c3.11,6.76,5.13,14,8,20.8,2.29,5.57,5.36,11,10,15a84.77,84.77,0,0,1,21.23-13.25l1.4-.74-1.08.07.8-.23-5.75-7.37c-5.46-9.52-7.75-20.49-13.42-29.9-2.8-4.51-6.91-8.74-12.27-9.9,3.93,4.5,6.21,10.17,7.77,15.88,1.92,7.1,2.85,14.44,4.64,21.55a42.92,42.92,0,0,0,4.71,12.32l2.41,3.44-7.49-7.19c-6.47-8.38-10.41-18.44-17.24-26.55-3.46-4.08-8.19-7.5-13.75-7.9C119.27,82.13,122.43,87.18,124.84,92.4Z"/><path class="cls-2" d="M98.07,120.67c5.94,6.56,10.68,14.12,17,20.34,3,3,6.52,5.83,10.61,7.26a85.39,85.39,0,0,1,17.21-20.07l-8.39-5.74c-8.07-7.42-13.63-17.11-22-24.23-3.62-3-8.14-5.44-13-5.44-.51,0-1,0-1.54.08l7.17,5.94c6.5,7.18,10.38,16.17,15.31,24.4a50.22,50.22,0,0,0,8.55,11.09l4,3.12-6.85-2.95c-10.15-6.05-17.49-15.7-27.57-21.8a22.65,22.65,0,0,0-11.28-3.44,14.93,14.93,0,0,0-3.8.47C89.3,112,94,116.09,98.07,120.67Z"/><path class="cls-2" d="M143.85,143l-.59.21-2,2.58.53.05a103.39,103.39,0,0,1,31.86,7.93l4-2.8a106.28,106.28,0,0,0-31.21-7.75C145.63,143.09,144.74,143,143.85,143Z"/><polygon class="cls-2" points="185.94 154.96 182.21 157.79 186.89 160.54 190.98 157.67 186.26 154.96 185.94 154.96"/><path class="cls-2" d="M189.2,258.11a68.12,68.12,0,0,0,8.68.55h0a71.28,71.28,0,0,0,29.1-6.23l.21-2.7-.41-9.11a99.68,99.68,0,0,0-28.27-61.36l-.63-.07-.43-.05-5.89,6.51a98.53,98.53,0,0,0-15.86,26.79,99.59,99.59,0,0,0-7,40A71.35,71.35,0,0,0,189.2,258.11Z"/><path class="cls-2" d="M160.42,232.72a103.33,103.33,0,0,1,31.73-59.4l-4.12-3.2-2.31,2a106.26,106.26,0,0,0-32.86,70.3l6.21,4.62A124.94,124.94,0,0,1,160.42,232.72Z"/><path class="cls-2" d="M132.84,160.43a70.53,70.53,0,0,0-5.43,32A65.44,65.44,0,0,0,131.52,212a99.93,99.93,0,0,1,6.2-15.22,119.24,119.24,0,0,1,30.47-38.75A100,100,0,0,0,138.34,150,74.76,74.76,0,0,0,132.84,160.43Z"/><path class="cls-2" d="M98.83,146.92c4.17,3.8,8.39,7.66,13.35,10.4l4.2,1.58,3.2,1.2,1.84-3.65,3.21-6.37.82-1.81c-3.93-.28-7.67-1.82-11.23-3.53-5.63-2.89-10.87-6.54-16.26-9.94-4.49-2.75-9.09-5.47-14.28-6.77a20.39,20.39,0,0,0-5.22-.7A16.74,16.74,0,0,0,72,128.57a36.66,36.66,0,0,1,12.5,5.9C89.68,138.14,94.23,142.63,98.83,146.92Z"/><path class="cls-2" d="M155.5,197.37a108.62,108.62,0,0,1,20-26.89l5.4-5v-.56l-4.57-2.66-5.41,4.86a113.28,113.28,0,0,0-32.46,58.29l.29,1.26,5,6.64a115.87,115.87,0,0,1,7.46-26.84l1-2.56,0,.48Z"/><path class="cls-2" d="M178,275.35l-1-.42a85,85,0,0,1-51.39-37.82l-3.18,3.8c-5.35,5.52-12.2,9.09-18.75,13-5,2.92-10,5.9-14.13,10-3.11,3.25-5.59,7.28-5.89,11.81l7.79-6.58c9.74-6,21.1-8.2,31.22-13.25a36.37,36.37,0,0,0,10.4-7.61c-1.51,3.69-4.23,6.76-7,9.58-5,5-10.75,9.1-16,13.68-3.77,3.26-7.34,6.83-9.75,11.18l-2.44,8.9.36.58a37.11,37.11,0,0,1,9.32-9.59c8-6,17.42-9.77,25.63-15.53a37.08,37.08,0,0,0,9.38-9.4c-1.09,4.52-3.77,8.48-6.56,12.15-4.16,5.34-9,10.1-13.28,15.34l-6.37,9.74a19.43,19.43,0,0,0-1.58,12l2.1-3.94a46.27,46.27,0,0,1,9-10.37c3.73-3.32,7.75-6.34,11.73-9.45,4.69-3.75,9.47-7.63,13-12.6l2.87-5c-.58,5.83-3.44,11.07-6.33,16-3.63,6-7.75,11.59-10.93,17.8-2.11,4.19-3.81,8.81-3.63,13.63l1.09,5.59,3.55-8.46c5.59-9.83,14.54-16.94,21.38-25.75,2.93-3.76,5.56-7.94,6.6-12.66l-.16,5.8c-1.21,6.37-3.92,12.34-6.54,18.23s-5.42,12-6.39,18.51a18.8,18.8,0,0,0,2.17,12.83A36.54,36.54,0,0,1,158,314.14c4.42-9.08,11.14-16.75,15.92-25.67A33.25,33.25,0,0,0,178,275.35Z"/><path class="cls-2" d="M108.29,229.27a30.58,30.58,0,0,0,11.17-4.16l-1.74-4.81a85.56,85.56,0,0,1-4.51-23.18,96.45,96.45,0,0,1,.39-13.82,89.51,89.51,0,0,1,5.94-23.11l-4.85-.5-3.65-.37c-10.19-2.48-19.22-8.23-29.24-11.26l-10.25-1.4-8,2.31,5.95,1.11c7,2,13.2,6,19.18,10,3.33,2.24,6.66,4.59,10.14,6.67a52.82,52.82,0,0,0,9.23,4.49l7.34,1.67a30,30,0,0,1-5.59.5c-5.46,0-10.94-1.29-16.19-2.63L90.65,170c-6.26-1.67-12.56-3.43-19.06-3.61H71a20.24,20.24,0,0,0-12.64,4.12c.58,0,1.17,0,1.75,0a41.15,41.15,0,0,1,13.16,2.28c1.59.53,3.15,1.12,4.69,1.74,7.08,2.9,13.79,6.66,21,9.23a36.58,36.58,0,0,0,12.87,2.41h1a29.5,29.5,0,0,1-11.3,1.78c-1.26,0-2.52,0-3.76-.07-7.54-.27-15.08-1.71-22.65-1.71-1.67,0-3.34.07-5,.23-5,.47-10.08,2.45-13.49,6.29l6.42-.79,1.12,0c6.74,0,13.31,1.77,19.71,3.61,6.91,2,13.78,4.23,20.94,4.62l8.14-.54c-6.13,3.42-13.32,4.07-20.23,4.52-7.64.6-15.48.46-22.94,2.66-4.47,1.36-8.86,3.86-11.25,8l9.54-2.24c1.59-.15,3.18-.21,4.76-.21a119.3,119.3,0,0,1,14.82,1.25,117.57,117.57,0,0,0,14.84,1.25,48.17,48.17,0,0,0,4.94-.23l7.79-1.82-9.78,5.08c-5.69,2-11.59,3-17.41,4.32-5.59,1.28-11.3,2.61-16.29,5.47a18.6,18.6,0,0,0-8.1,8.69l5-2.38c6.19-2.39,12.9-3,19.42-3.24C94.79,230.36,101.61,230.44,108.29,229.27Z"/><path class="cls-2" d="M120.71,240.33l4.91-3.22a99.62,99.62,0,0,1-6.08-11.86l-8.27,6.23c-6.48,3.57-13.63,5.82-20.46,8.7-4.48,1.92-9,4-12.71,7.22-2.78,2.48-5.21,5.65-5.92,9.36A34.31,34.31,0,0,1,82,251c6.87-2.66,14.13-3.79,21.35-5.22C109.25,244.6,115.35,243.27,120.71,240.33Z"/><path class="cls-2" d="M222.67,138.65a116.54,116.54,0,0,0-16.31,5.28l4.44,2.41,1.77-.2a113.58,113.58,0,0,1,35.64-7.73l-3.06-2.93A117,117,0,0,0,222.67,138.65Z"/><path class="cls-2" d="M223.05,153.34a102.44,102.44,0,0,1,31.45-7.59l-2.15-2.68-1.95,0a105.87,105.87,0,0,0-32.31,7.84l3.61,2.49Z"/><path class="cls-2" d="M251.09,126.65a101.9,101.9,0,0,1,11.35,10.93l6.68-9.3c7.28-7.61,16.54-13,23.31-21.12,3.38-4,5.79-9,5.4-14.39l-8,8.91c-7.9,6.31-17.37,10.14-25.76,15.69a36.59,36.59,0,0,0-10.81,10.48l2.42-6.19c3.89-6.7,9.4-12.17,14.45-18,3.57-4.17,7.2-8.44,9.43-13.55A18.7,18.7,0,0,0,281,78.49,40.87,40.87,0,0,1,271,91.86c-7.53,7.1-16.6,12.41-23.48,20.11l-5.09,7.77.4-3a44.8,44.8,0,0,1,4.61-10.72c3.33-6,7.37-11.43,10.75-17.39,2.21-3.94,4.19-8.1,4.83-12.6l-.94-9.2a38.62,38.62,0,0,1-4.72,10.6c-5.6,8.65-13.69,15.37-20,23.45-3,3.9-5.72,8.25-6.83,13.16l1.33-10.43c1.83-6,4.59-11.8,7.11-17.61,2.05-4.83,4.08-9.8,4.78-15.06.09-.54.16-1.09.2-1.64a18.06,18.06,0,0,0-2.41-11c-.38,5.55-2.45,10.79-5.09,15.64-1.78,3.27-3.83,6.37-5.92,9.46-3.58,5.27-7.29,10.48-9.94,16.29l-2.85,9.89-.55-3.92A47.17,47.17,0,0,1,218.4,94.2c.7-3.28,1.6-6.53,2.44-9.75,1.61-6.26,3.48-12.56,3.3-19.07l-2.44-9.86L220,53.58l-.55,8.5c-2.27,11.38-8.89,21.16-12.67,32a34.18,34.18,0,0,0-2.19,11.11,20.19,20.19,0,0,0,.22,3A84,84,0,0,1,251.09,126.65Z"/><polygon class="cls-2" points="198.05 148.04 197.88 148.13 193.1 150.6 197.88 153.18 197.99 153.25 202.81 150.6 198.05 148.04"/><polygon class="cls-2" points="204.92 157.55 208.89 160.54 213.75 157.75 209.77 154.88 204.92 157.55"/><path class="cls-2" d="M197.88,117.32h-.14a70.51,70.51,0,0,0-41.22,13.37c3.21.21,6.43.48,9.63.85s6.34.87,9.46,1.54a116.66,116.66,0,0,1,19.29,5.66l3,1.07.11,0,1.79-.64a118.81,118.81,0,0,1,39.52-8.48,70,70,0,0,0-36.86-13.25C200.92,117.38,199.4,117.32,197.88,117.32Z"/><path class="cls-2" d="M293.43,216.61a34.82,34.82,0,0,0-12.89-4.1l-.47,1.07a77.73,77.73,0,0,1-3.81,11.65c.48,0,.95,0,1.43,0,5.73,0,11.34,2,16.61,4.1,7.45,3,14.63,6.93,22.5,8.77a26.85,26.85,0,0,0,6.13.75,17.58,17.58,0,0,0,9.26-2.4l-9.51-2.31C312.06,229.91,303.46,221.91,293.43,216.61Z"/><path class="cls-2" d="M321.48,212.28c-9.36-3.28-17.86-8.64-27.33-11.51a35.46,35.46,0,0,0-10.49-1.47H282.5a99.27,99.27,0,0,1-2.06,13.07l6.64-.43c12.19.54,23.45,6.13,35.6,7,.67.05,1.34.08,2,.08a20.24,20.24,0,0,0,12.75-4.12c-.55,0-1.1,0-1.65,0A42,42,0,0,1,321.48,212.28Z"/><path class="cls-2" d="M287,230.16c-3.24-2.18-6.87-4.21-10.79-4.83a120.7,120.7,0,0,1-5.86,11.78,32.85,32.85,0,0,1,10.77,3.3C288.32,244,294.83,249,301.83,253c3.92,2.19,8.08,4.19,12.58,4.89l9.44-1c-7.19-1.69-13.36-6.11-18.83-10.93C299,240.7,293.58,234.74,287,230.16Z"/><path class="cls-2" d="M296.32,263.14c-5.17-6.06-9.59-12.65-15.11-18.38a33,33,0,0,0-11-7.65,115,115,0,0,1-7.85,10.82l8.94,4.09a95.53,95.53,0,0,1,11.21,9c5,4.43,10,9.15,15.86,12.39a21.22,21.22,0,0,0,10,2.72,16,16,0,0,0,3.82-.45C305.83,273.14,300.75,268.29,296.32,263.14Z"/><path class="cls-2" d="M332.41,193.51l-1.29,0a56.53,56.53,0,0,1-13.41-2c-8.89-2.2-17.55-5.67-26.79-6.19l-8.19.54a34.89,34.89,0,0,1,11.1-3.59c6.82-1.09,13.79-1.09,20.64-1.63,4.89-.45,9.86-1,14.39-3l8.54-6.95-3.34,1.05A39.85,39.85,0,0,1,323,173.15c-1.6,0-3.2-.07-4.79-.16-8.21-.57-16.47-2.32-24.75-2.32a48.68,48.68,0,0,0-5.78.32l-7,1.75,9-4.82c6.5-2.33,13.33-3.45,20-5,5.18-1.2,10.38-2.64,15-5.36a17.64,17.64,0,0,0,7.51-8.38L328,151.24c-5.49,2.28-11.49,3-17.35,3.42-6.39.33-12.78.3-19.14,1a37.45,37.45,0,0,0-15.05,4.55l9.63-7c5.28-2.68,10.89-4.66,16.38-6.84,5.05-2,10.19-4.21,14.51-7.6a19.21,19.21,0,0,0,6.85-10.06l-8.31,5.08c-11.36,5-24,5-35.62,9.21l-9.05,4.91,3.07-3.9c5.51-5.28,12.27-8.85,18.77-12.72,5.22-3.08,10.58-6.27,14.73-10.85,2.53-3,4.61-6.62,4.7-10.58l-6.93,6c-9.09,6-19.88,8.27-29.66,12.71-4.88,2.18-9.57,5-13.07,9.17a84,84,0,0,1,20.21,53l-.16,8.66,8.41-1.71c1.27-.08,2.54-.11,3.8-.11a159.81,159.81,0,0,1,16.51,1.24c3.18.31,6.4.59,9.61.59a37.44,37.44,0,0,0,8.63-.9,18.92,18.92,0,0,0,9.74-5.61Z"/><path class="cls-2" d="M282.07,274.19c-4.12-7.09-7.59-14.6-13.05-20.78L262.19,248A84.46,84.46,0,0,1,208,276.91l-3.46.73,3.18,8.18a99.48,99.48,0,0,1,1.73,15.37c.33,6.58.54,13.3,2.43,19.67,1.36,4.54,4,8.93,8.08,11.41a34.71,34.71,0,0,1-2.43-11,78.82,78.82,0,0,1,.53-13.3c.87-8.62,2.73-17.3,1.47-25.92L218,275.66c3.72,4.72,5.43,10.57,6.88,16.29,2.07,8.25,3.08,16.91,6.71,24.77,2,4.41,5.33,8.47,9.92,10.31-3.89-6.4-5.17-14-5.56-21.35l-.41-9.79c-.21-8.35-.75-17.06-5-24.5a33.29,33.29,0,0,1,7.09,9.82c2.06,4.07,3.65,8.35,5.32,12.63,2.27,5.86,4.52,11.87,8.25,17,2.64,3.61,6.31,6.72,10.77,7.65a38.75,38.75,0,0,1-7.53-15c-2.54-9-3.32-18.38-6.21-27.25a35.89,35.89,0,0,0-5.86-11c6.25,4.11,10.17,10.73,13.9,17s7.2,13,12.26,18.33c3.31,3.38,7.54,6.1,12.35,6.41-4.6-3.93-7.84-9.21-10.25-14.64-3.75-8.39-6-17.43-10.28-25.58l-7-9.17,9.06,6.41a136.55,136.55,0,0,1,9.57,11c4,4.88,8,9.9,13.16,13.63a19.35,19.35,0,0,0,11.15,3.95,12.75,12.75,0,0,0,1.38-.07C290.71,288.32,286.05,281.21,282.07,274.19Z"/><path class="cls-2" d="M264.44,211.89a68.28,68.28,0,0,0,3.69-16.24,87.66,87.66,0,0,0,.35-11.69,71.1,71.1,0,0,0-11-34,101.17,101.17,0,0,0-29.89,8.13,119.27,119.27,0,0,1,31,39.62A152.78,152.78,0,0,1,264.44,211.89Z"/><path class="cls-2" d="M257.55,226l-2-7.91a113.77,113.77,0,0,0-36.11-55.79l-4.77,2.8,8.3,8.17a109.94,109.94,0,0,1,29,60.11Z"/><path class="cls-2" d="M236.68,246.9l6.25-4.36A105.56,105.56,0,0,0,217.54,180L208,170.09l-4.37,3.15a103.26,103.26,0,0,1,33,73.66Z"/><path class="cls-2" d="M198.61,277.45h-1.68a80.53,80.53,0,0,1-16.47-1.75l-2.09-.33-.16.33.47,4.9c0,7.22-2.06,14.19-3.92,21.13-1.56,6.06-3.27,12.2-3.09,18.52a18.9,18.9,0,0,0,4.13,12,37.29,37.29,0,0,1,2.06-14.5c3.22-10.06,9.17-19.1,12.11-29.29a42,42,0,0,0,1.42-10.87,33.93,33.93,0,0,1,1.73,11.26A118.56,118.56,0,0,1,192,304.69c-.54,6.19-1.16,12.44,0,18.56A18.69,18.69,0,0,0,197.88,334l0,0,0-.14a38.4,38.4,0,0,1,0-15.94c.13-.69.27-1.37.42-2.05,1.34-6.41,3.48-12.62,5.13-19a52.45,52.45,0,0,0,1.86-13l-.85-6.65Z"/></g></g></svg>