<svg xmlns="http://www.w3.org/2000/svg" viewBox="0 0 395.77 395.76"><defs><style>.cls-1{fill:#e52a18;}.cls-2{fill:#fff;}</style></defs><g id="Camada_2" data-name="Camada 2"><g id="Capa_1" data-name="Capa 1"><path class="cls-1" d="M5.85,150.35C32.09,44.26,139.36-20.41,245.41,5.84S416.17,139.33,389.93,245.4,256.43,416.17,150.35,389.91-20.42,256.42,5.85,150.35"/><path class="cls-2" d="M150.13,172.75c-2.66-22.93-24.27-35.53-43.07-30.49-17.15,4.58-23.78-8.3-26.16-25C59.29,151.13,76,190.2,92.68,204.83c30.48,26.76,81.23,24.84,107.6-6-25.69,14.23-48.05-8.23-50.15-26.08m59-29.78c20.9-9.79,25.94-34.28,15.19-50.53-9.79-14.8.32-25.2,15.37-32.76-39-9.72-70.69,18.49-79.28,39-15.69,37.44,2.27,85,39.89,100.15-21.69-19.84-7.42-48.2,8.83-55.86m74.24-12.85c-40.42-3.44-80.13,28.22-83.07,68.71,12.24-26.76,43.61-21.89,55.89-8.73,15.76,16.86,40.6,14.12,52.73-1.07,11.07-13.87,24.1-7.45,35.88,4.58-2.66-40.1-39.28-61.61-61.43-63.49M225.76,249.33c-11.22,20.16-1,43,17.17,49.89,16.61,6.28,14.48,20.62,6.63,35.53,37.34-14.87,46.6-56.28,41.63-78-9.15-39.53-51.49-67.57-90.91-57.95,29.2,3.44,34.24,34.74,25.48,50.5M160,238.54c-22.6-4.47-41.19,12.24-42.19,31.65-.89,17.75-15.19,20.13-31.79,17.25,25.58,31,67.88,27.08,86.94,15.68,34.85-20.83,48.62-69.73,27.29-104.29,5.71,28.85-22.57,43.22-40.25,39.71"/><path class="cls-1" d="M116.31,174.45l3.59-7.88-7.53,4.29L106,165.05l1.77,8.48-7.52,4.33,8.63.92,1.73,8.48,3.59-7.91,8.59.92ZM158.86,267l-7.52,4.29-6.42-5.78,1.81,8.48-7.53,4.33,8.63.85,1.77,8.51,3.52-7.95,8.62,1-6.43-5.78Zm107.49-6.36L258.87,265l-6.46-5.79,1.81,8.45L246.73,272l8.62.92,1.81,8.45,3.52-7.92,8.58.89-6.42-5.78Zm23.46-96.38,3.48-7.88-7.45,4.33-6.46-5.75,1.84,8.45-7.52,4.36,8.66.89,1.81,8.44,3.51-7.91,8.59.85ZM237,160.82l-7.66,3c-21,9.7-25.43,22-28.75,31.36l-.35-.35-1.55,1.55c-8-6.13-18.06-13.08-21-36.22l-.49-8a57.28,57.28,0,0,1,4.89-23.42,38.21,38.21,0,0,1,4.86-8.16l-.1-1.35-1.31.15c-.08.06-10.19,12-10.19,32.78l.5,8.27c2.87,23.42,13.6,31.26,21.47,37.33l-1.07,1.07.9.9c-8.29,5.58-18.17,12.7-40.72,8.15l-7.73-2a56.94,56.94,0,0,1-20.69-12.1,41.14,41.14,0,0,1-6.21-7.2l-1.27-.32-.33,1.28v0c.08.07,8.17,13.46,27.9,20.06l8,2.12c23.35,4.82,34.18-3.06,42.44-8.62l1.71,1.7.12-.11c2.74,9.47,6.11,21-4.91,40.61L191.16,250a57,57,0,0,1-17.85,16,38.73,38.73,0,0,1-8.77,3.72l-.71,1.1,1.14.71c.1,0,15.33-3.62,27.68-20.4l4.47-6.92c11.73-20.73,7.57-33.42,4.8-43.05l1.3-1.28c10,.34,22.21.2,37.94,17.14l5.07,6.18a57,57,0,0,1,9.69,21.93,40.68,40.68,0,0,1,.89,9.47l.82,1,1-.85c0-.11,1.28-15.69-10.93-32.61l-5.22-6.4c-15.87-17.24-29.09-17.43-39-17.72l-1.39-1.38c3.4-9.47,6.94-21.24,28.07-31.14l7.45-2.91A57,57,0,0,1,261.42,160a38.93,38.93,0,0,1,9.3,2.13l1.21-.49-.5-1.21c-.11-.07-14.55-6-34.39.35M191.37,111l1.85,8.45,3.51-7.92,8.58.86-6.45-5.79,3.48-7.91-7.5,4.37-6.45-5.75,1.84,8.44-7.45,4.37Z"/></g></g></svg>