<svg xmlns="http://www.w3.org/2000/svg" viewBox="0 0 394.94 394.93"><defs><style>.cls-1{fill:#006eb7;}.cls-2{fill:#ffd300;}</style></defs><g id="Camada_2" data-name="Camada 2"><g id="Capa_1" data-name="Capa 1"><path class="cls-1" d="M5.83,150C32,44.17,139.06-20.37,244.9,5.83S415.3,139,389.11,244.89,255.9,415.3,150,389.1-20.38,255.88,5.83,150"/><path class="cls-2" d="M71.53,267.88l-5.07-15.55-5,15.58H45.08l13.22,9.61-5,15.51,13.23-9.61L79.71,293l-5.07-15.55,13.2-9.6Zm-24.8-57.51L60,220l-5.1-15.52,13.19-9.64-16.34,0-5.1-15.51-5,15.55-16.34.06,13.26,9.55-5,15.54ZM277.46,324l-5-15.54L267.35,324,251,323.92l13.19,9.65-5.13,15.54,13.25-9.58,13.19,9.65-5-15.55,13.26-9.58Zm-150.18.37-5-15.51-5,15.54-16.34,0L114.09,334l-5,15.55,13.19-9.65,13.23,9.58L130.43,334l13.19-9.61Zm76.33,20.15L198.54,329l-5,15.57H177.19l13.2,9.62-5,15.51,13.2-9.61,13.25,9.54-5.1-15.51,13.16-9.61ZM333.11,268,328,252.46,323,268l-16.34,0,13.26,9.58-5,15.54,13.19-9.61,13.23,9.58-5.08-15.51,13.23-9.65Zm36.09-73.38-16.34-.07-5-15.54-5.14,15.51-16.34-.07,13.19,9.65-5.1,15.51L347.76,210,361,219.71l-5-15.58Zm-55.58-51.31,13.19-9.61L340,143.28,335,127.77l13.22-9.65-16.34,0-5.07-15.58-5,15.58H305.4l13.26,9.61Zm-40.3-94.93-5,15.52L252,63.9l13.26,9.58-5,15.54,13.19-9.58L286.61,89l-5.08-15.51,13.2-9.65-16.31,0ZM52.1,144.47l13.2-9.61,13.22,9.58L73.45,128.9l13.23-9.62H70.34l-5.08-15.51-5,15.55-16.34,0,13.22,9.58Zm55.72-55.68,13.23-9.61,13.19,9.58-5-15.55,13.19-9.61H126.08L121,48.09l-5,15.54H99.64l13.22,9.58ZM184,68.44l13.23-9.61,13.22,9.61-5-15.55,13.19-9.57H202.29l-5-15.55-5,15.55H175.87l13.19,9.57Z"/></g></g></svg>