<svg xmlns="http://www.w3.org/2000/svg" viewBox="0 0 395.39 394.93"><defs><style>.cls-1{fill:#ffd300;}.cls-2{fill:#24356b;}</style></defs><g id="Camada_2" data-name="Camada 2"><g id="Capa_1" data-name="Capa 1"><path class="cls-1" d="M5.83,150C32,44.17,139.06-20.37,244.9,5.83S415.3,139,389.11,244.89,255.89,415.3,150,389.1-20.38,255.88,5.83,150"/><path class="cls-2" d="M170.39,393c-1.15-.16-2.29-.35-3.44-.53,1.15.18,2.29.37,3.44.53M300.51,28.72V366.14a197.47,197.47,0,0,0,0-337.42M6.29,150C-15.11,236.42,24,323.57,96.61,367V28A196.78,196.78,0,0,0,6.29,150"/><path class="cls-2" d="M187.16,302.94v-57.6l-38,5.09s-16.76-88.84-40.41-121.8l1-2.08c16.53,3.38,33.81,11.36,45.54,23.51l-8.06-1.92c-6.57-1.27,17.91,80.59,17.91,80.59l22-3.29v-78a64.11,64.11,0,0,0-17.82,2.74C184.2,135.33,198,97.51,198,97.51s13.73,37.9,28.56,52.74a61.51,61.51,0,0,0-17.86-2.77v78.08l22,3.24s24.43-82.2,17.92-80.62l-8.06,2c11.73-12.15,29-20.09,45.53-23.49l1,2.09c-23.42,33.1-40.4,121.75-40.4,121.75l-38-5v57.49Z"/></g></g></svg>