<svg xmlns="http://www.w3.org/2000/svg" viewBox="0 0 395.76 395.76"><defs><style>.cls-1{fill:#318c2c;}.cls-2{fill:#ffd300;}</style></defs><g id="Camada_2" data-name="Camada 2"><g id="Capa_1" data-name="Capa 1"><path class="cls-1" d="M5.85,150.35C32.09,44.26,139.36-20.41,245.41,5.84S416.17,139.33,389.93,245.4,256.43,416.17,150.35,389.92-20.42,256.42,5.85,150.35"/><polygon class="cls-2" points="178.45 145.38 166.57 181.9 197.67 159.34 198.01 159.59 228.74 181.9 216.85 145.38 247.93 122.82 209.54 122.82 203.97 105.68 198.01 87.36 197.67 86.31 187.5 117.58 185.79 122.82 179.74 122.82 147.41 122.82 162.5 133.79 178.45 145.38"/><path class="cls-2" d="M337.19,154A141,141,0,0,1,198,274.79h-.34A141,141,0,0,1,63.91,178.4,139.4,139.4,0,0,1,58.15,154a143.5,143.5,0,0,0-1.33,19.22c0,2.19,0,4.38.15,6.55a140.86,140.86,0,0,0,140.7,134.3H198A140.86,140.86,0,0,0,338.51,173.2,143.5,143.5,0,0,0,337.19,154Z"/></g></g></svg>