<svg xmlns="http://www.w3.org/2000/svg" viewBox="0 0 394.93 394.94"><defs><style>.cls-1{fill:#e52a18;}.cls-2{fill:#f6f6f6;}</style></defs><g id="Camada_2" data-name="Camada 2"><g id="Capa_1" data-name="Capa 1"><path class="cls-1" d="M150,389.11C44.17,362.92-20.36,255.88,5.83,150S139-20.36,244.89,5.83,415.3,139.05,389.1,244.9,255.88,415.32,150,389.11"/><path class="cls-1" d="M131.15,383.43V11.5A197.18,197.18,0,0,0,5.83,150c-24.6,99.38,30.81,199.82,125.32,233.39"/><path class="cls-2" d="M238.05,4.27,236.79,4l-2.2-.44-1.27-.24L231,2.92l-1.15-.2q-1.42-.24-2.85-.45l-.56-.09q-1.71-.26-3.42-.48l-.91-.12-2.5-.3-1.2-.13L216.2.92,215,.8,212.69.61,211.54.52,208.93.35l-.79,0L204.72.14h-.55L201.34.05l-1.08,0-2.33,0h-1.17l-2.28,0-1.13,0-2.5.07-.86,0q-3.39.14-6.76.37l-.89.07c-.82.07-1.64.13-2.46.21l-1.07.1-2.32.23-1.06.12L173,1.53l-.87.11q-3.34.44-6.68,1l-.6.1-2.69.48-.91.17-2.41.46-.95.19-2.45.53-.82.17-3,.7-.22,0c-1.05.25-2.09.51-3.13.78h0c-5.78,1.5-11.49,3.25-17.09,5.25V383.43q9.21,3.27,18.89,5.68a196.7,196.7,0,0,0,78.41,3.38l.33-.06,2.78-.46.58-.11c.87-.15,1.73-.31,2.59-.48l.77-.15,2.43-.49.92-.2,2.31-.5,1.07-.26c.72-.16,1.43-.33,2.15-.51l1.62-.41,2.43-.63,2.39-.65,1.05-.3,2.25-.66,1.06-.33,2.24-.7,1-.33c.75-.25,1.5-.49,2.24-.75l1-.34,2.25-.79.53-.19h0c.46-.17.93-.33,1.39-.51V12.27l-1.39-.49v0c-1.16-.41-2.33-.8-3.49-1.2l-.34-.12c-1.53-.51-3.06-1-4.6-1.48l-.65-.21c-1.44-.44-2.89-.86-4.35-1.27l-.92-.27q-2.59-.72-5.24-1.37c-1.13-.28-2.27-.55-3.41-.81l-1.09-.25-2.34-.5"/><path class="cls-1" d="M199.45,271.71H202l-.82-33.93,2.37-2c10.63,1.27,20.17,2.41,30.82,3.7l-2.71-9.27a4.36,4.36,0,0,1,1.4-4.41L264,199.55l-6.4-3.15c-2.8-1.06-2-2.7-1-6.68l4.7-17.94-17.93,3.95a2.75,2.75,0,0,1-3.19-2l-2.32-8.44-14.19,16.62c-2,2.66-6.11,2.66-4.84-3.5l6.08-33.66-8.14,4.41c-2.29,1.33-4.57,1.55-5.86-.83l-11.41-21.9L188,148.34c-1.27,2.38-3.56,2.16-5.84.83l-8.13-4.41,6.06,33.66c1.27,6.16-2.82,6.16-4.83,3.5L161.07,165.3l-2.3,8.44a2.75,2.75,0,0,1-3.18,2l-18-3.95,4.72,17.94c1,4,1.8,5.62-1,6.68l-6.42,3.15,30.92,26.23a4.38,4.38,0,0,1,1.41,4.41l-2.71,9.27c10.63-1.29,20.17-2.43,30.81-3.7l2.37,2-.83,33.93Z"/></g></g></svg>